#tb 0: 1/1000
0,          0,          0,        0,     1782, fda5ad9bf70a51b3a41bdcabf2cce32a
0,         33,         33,        0,     1782, 91916fb20ad542a7a3ad276e6505f9b0
0,         66,         66,        0,     1782, e18e5d11aec483c76afd68f7e64415a4
0,        100,        100,        0,     1782, c13da01c2b6c09101bda7af93ad5fd07
0,        133,        133,        0,     1782, ed8d2568b2ad9c7bd980cba0d3b95cff
0,        166,        166,        0,     1782, e6f3cf312b69d37579e77f2e52cc936b
0,        200,        200,        0,     1782, e509f3682e9c4bcdb0889e044b1979b7
0,        233,        233,        0,     1782, acc3945e557cd7a9642f08a656444976
0,        266,        266,        0,     1782, 44ddd03aa8f03ba393f12fc6a1b3fc17
0,        300,        300,        0,     1782, fdd3e68132c742d9f0cf0ea6fff2a074
